<?xml version="1.0" encoding="UTF-8" standalone="no"?>
<!-- Created with Inkscape (http://www.inkscape.org/) -->

<svg
   xmlns:dc="http://purl.org/dc/elements/1.1/"
   xmlns:cc="http://creativecommons.org/ns#"
   xmlns:rdf="http://www.w3.org/1999/02/22-rdf-syntax-ns#"
   xmlns:svg="http://www.w3.org/2000/svg"
   xmlns="http://www.w3.org/2000/svg"
   xmlns:xlink="http://www.w3.org/1999/xlink"
   xmlns:sodipodi="http://sodipodi.sourceforge.net/DTD/sodipodi-0.dtd"
   xmlns:inkscape="http://www.inkscape.org/namespaces/inkscape"
   width="38.678909mm"
   height="38.677082mm"
   viewBox="0 0 38.678909 38.677082"
   version="1.1"
   id="svg909"
   inkscape:version="0.92.3 (2405546, 2018-03-11)"
   sodipodi:docname="72dpi_web_logo.svg">
  <defs
     id="defs903" />
  <sodipodi:namedview
     id="base"
     pagecolor="#ffffff"
     bordercolor="#666666"
     borderopacity="1.0"
     inkscape:pageopacity="0.0"
     inkscape:pageshadow="2"
     inkscape:zoom="1.1908203"
     inkscape:cx="-18.163638"
     inkscape:cy="-105.27204"
     inkscape:document-units="mm"
     inkscape:current-layer="layer1"
     showgrid="false"
     inkscape:window-width="1920"
     inkscape:window-height="1025"
     inkscape:window-x="1366"
     inkscape:window-y="27"
     inkscape:window-maximized="1" />
  <metadata
     id="metadata906">
    <rdf:RDF>
      <cc:Work
         rdf:about="">
        <dc:format>image/svg+xml</dc:format>
        <dc:type
           rdf:resource="http://purl.org/dc/dcmitype/StillImage" />
        <dc:title></dc:title>
      </cc:Work>
    </rdf:RDF>
  </metadata>
  <g
     inkscape:label="Ebene 1"
     inkscape:groupmode="layer"
     id="layer1"
     transform="translate(-31.318808,-30.64483)">
    <a
       transform="matrix(0.26458823,0,0,0.26457573,14.041633,27.10736)"
       xlink:href="http://www.ksg-dresden.de/"
       target="_top"
       id="a70">
      <g
         id="g68">
        <circle
           cx="138.37399"
           cy="86.462997"
           r="71.866997"
           id="circle24"
           style="fill:none" />
        <circle
           stroke-miterlimit="1"
           cx="138.603"
           cy="87.320999"
           r="65.157997"
           id="circle26"
           style="fill:none;stroke:#000000;stroke-width:2.45129991;stroke-miterlimit:1" />
        <path
           inkscape:connector-curvature="0"
           stroke-miterlimit="1"
           d="m 138.391,14.596 c -39.691,0 -71.867,32.176 -71.867,71.867 0,39.691 32.176,71.867 71.867,71.867 39.691,0 71.867,-32.176 71.867,-71.867 0,-39.691 -32.176,-71.867 -71.867,-71.867 z m 0.212,137.883 c -35.986,0 -65.158,-29.172 -65.158,-65.158 0,-35.985 29.172,-65.158 65.158,-65.158 35.985,0 65.158,29.172 65.158,65.158 0,35.986 -29.173,65.158 -65.158,65.158 z"
           id="path28"
           style="fill:#ffffff;stroke:#000000;stroke-width:2.45129991;stroke-miterlimit:1" />
        <path
           inkscape:connector-curvature="0"
           d="m 205.892,100.282 c -9.804,2.203 -136.292,0 -136.292,0 0,0 0.325,-28.479 2.975,-28.438 2.65,0.044 123.024,1.962 130.623,3.188 7.598,1.224 1.712,18.629 2.694,25.25 z"
           id="path30" />
        <path
           inkscape:connector-curvature="0"
           d="m 154.413,150.303 c -2.696,8.07 -28.008,0.887 -28.008,0.887 0,0 1.558,-122.406 0,-128.861 -1.559,-6.456 19.671,-3.758 24.578,-2.043 4.904,1.717 6.129,121.943 3.43,130.017 z"
           id="path32" />
        <path
           inkscape:connector-curvature="0"
           d="M 73.644,101.374 C 73.36,99.43 73.01,98.086 72.927,97.075 c -0.081,-1.157 -0.08,-3.198 1.499,-3.518 1.433,-0.291 5.775,1.055 1.828,3.289 3.137,-0.186 3.462,-1.346 3.527,-2.264 -0.026,-1.283 -0.676,-2.721 -2.668,-3.459 -2.196,-0.824 -4.059,-2.15 -4.059,-1.168 0,0.979 -1.747,1.266 -2.417,0.373 -0.379,-0.562 -0.309,-1.39 0.171,-1.961 1.479,-1.705 1.953,1.469 4.199,-0.775 0.75,-0.004 0.282,1.27 0.559,1.523 0.349,0.225 1.252,0.369 2.348,0.239 2.297,-0.17 4.919,-2.596 3.758,-4.061 -0.579,-0.941 -3.339,-2.396 -4.978,-1.3 3.487,-0.065 1.649,2.646 -1.022,1.408 -1.142,-0.322 -1.344,-1.41 -0.584,-2.205 0.454,-0.561 2.902,-0.74 5.047,-0.514 0.734,0.117 1.384,0.201 1.942,0.23 1.071,-0.514 1.174,-1.498 1.068,-1.521 -0.05,0.049 -0.302,0.18 -0.903,0.189 -0.846,-0.016 -2.128,-0.278 -3.861,-0.524 -0.897,-0.108 -1.899,-0.239 -3.267,-0.132 -1.305,0.087 -3.159,0.555 -4.668,1.732 -1.537,1.203 -1.458,1.676 -1.995,3.026 -0.489,1.229 0.159,3.552 0.159,4.39 0,0.838 0.652,8.893 0.976,10.645"
           id="path34"
           style="fill:#ffffff" />
        <g
           id="g38">
          <path
             inkscape:connector-curvature="0"
             d="m 70.598,77.982 c 0.35,-3.818 4.537,0.091 2.473,2.153 1.307,-0.307 3.385,-1.657 2.955,-2.134 2.53,-0.181 5.166,0.553 6.097,-2.975 -3.475,1.507 -2.988,-0.937 -5.966,0.129 -2.408,0.861 -3.125,-0.726 -1.737,-5.366 -0.088,-0.115 -3.393,2.794 -3.41,2.709"
             id="path36"
             style="fill:#ffffff;stroke:#ffffff;stroke-width:0.24510001" />
        </g>
        <path
           inkscape:connector-curvature="0"
           d="m 126.255,22.069 c 6.312,-1.011 7.021,2.287 5.27,4.04 -1.334,1.114 -2.061,-1.752 -0.49,-1.309 -0.613,-1.08 -2.121,-0.241 -2.493,0.66 -0.536,1.296 0.611,3.66 1.737,4.186 1.146,0.54 2.535,-0.38 3.062,-1.496 0.534,-1.125 0.333,-2.575 1.108,-3.591 0.245,-0.323 0.673,-0.605 0.919,-0.255 0.436,0.611 -0.405,2.381 -0.458,3.189 -0.113,1.683 1.088,3.438 2.195,3.665 1.003,0.205 2.311,-0.413 2.354,-1.633 0.031,-0.869 -0.583,-1.995 -1.282,-1.691 0.728,1.109 -0.666,1.473 -0.738,0.085 -0.028,-0.512 0.285,-0.968 0.85,-1.203 0.506,-0.208 1.894,-0.071 2.731,-0.496 0.671,-0.338 1.388,-0.849 1.202,-1.466 -0.119,-0.398 -0.54,-0.36 -0.54,-0.36 0,0 0.347,-0.049 0.574,-0.033 0.789,-0.476 1.694,-1.994 2.249,-0.671 0.171,0.403 -0.042,1.195 0.112,1.649 0.25,0.742 0.979,1.392 1.509,1.545 1.266,0.378 2.532,-1.45 1.277,-2.405 -0.143,0.077 0.254,0.499 -0.058,0.46 -0.768,-0.313 -0.745,-1.613 -0.268,-1.918 0.556,-0.356 3.553,2.87 4.217,2.754 -1.257,-1.256 -1.49,-3.956 0.871,-3.48 1.169,0.203 1.054,-1.115 -1.885,-2.624 -2.941,-1.514 -23.93,-2.091 -23.93,-2.091"
           id="path40"
           style="fill:#ffffff" />
        <path
           inkscape:connector-curvature="0"
           d="m 200.361,78.675 c -0.521,0.403 -1.399,0.69 -1.71,0.137 -0.815,-1.466 0.153,-3.564 1.106,-1.462 0.619,-1.531 -1.443,-2.491 -3.006,-1.751 -1.736,0.871 -1.804,2.117 -2.325,3.531 0.221,1.846 0.755,-0.554 2.434,2.073 2.105,-2.313 5.886,0.099 6.673,0.896 0.811,0.842 0.092,2.16 -0.214,2.496 -0.534,0.586 -4.392,-1.605 -6.014,-1.602 -1.371,0.08 -2.889,1.654 -3.158,2.992 -0.235,1.2 0.166,2.686 1.153,2.614 0.703,-0.051 1.691,-0.301 1.488,-1.1 -1.172,0.231 -0.904,-1.769 0.239,-2 0.42,-0.087 0.802,1.2 1.413,1.389 0.608,0.188 0.464,-2.551 1.304,-1.41 0.695,1.044 1.682,2.248 2.9,1.574 0,0 1.687,2.176 2.013,2.34 -0.201,0.228 -5.564,-0.407 -4.81,1.461 0.316,1.095 -0.112,1.769 -0.725,2.136 -0.433,0.362 -2.727,0.582 -3.616,-2.451 -1.44,2.084 -0.122,8.027 4.382,7.873 -1.347,-0.797 -1.684,-3.492 1.076,-1.135 3.524,-3.722 3.357,0.952 2.432,4.643 -0.109,0.402 3.293,-0.658 3.325,-1.334 0.599,-5.035 1.829,-23.62 0.032,-21.784 0.776,4.657 -2.848,-0.149 -4.64,-0.149"
           id="path42"
           style="fill:#ffffff" />
        <path
           inkscape:connector-curvature="0"
           d="m 149.695,156.079 c 3.248,-0.522 8.452,-3.666 8.03,-3.414 -1.277,0.849 -1.008,-0.293 -1.931,-1.217 -4.535,1.443 -5.113,-0.776 -5.418,-0.623 -0.089,-0.506 0.716,-0.268 1.019,-0.592 0.494,-0.521 -0.314,-1.451 -1.228,-2.106 -1.126,-0.849 -3.307,-1.179 -4.06,-1.527 -0.838,-0.403 -1.287,-0.957 -1.19,-1.498 0.27,-1.489 2.53,-0.698 1.177,0.277 1.058,0.514 2.251,-0.449 2.384,-1.377 0.188,-1.316 -2.036,-2.47 -3.803,-2.453 -1.969,-0.013 -4.021,1.78 -3.844,3.603 0.093,0.87 1.3,2.866 0.609,3.475 -0.38,0.354 -1,0.004 -1.368,-0.354 -1.164,-1.139 -0.88,-2.682 -1.775,-3.905 -0.879,-1.207 -3.308,-2.17 -5.172,-1.383 -1.873,0.75 -3.142,3.586 -2.026,4.803 0.76,0.83 3.027,1.477 3.83,0.274 -2.29,0.677 -1.603,-2.504 0.621,-1.44 0.821,0.414 0.673,1.565 0.307,2.238 -0.231,0.438 -5.038,0.739 -6.631,1.114 -0.552,0.058 -0.537,3.235 -5.455,2.06 -0.797,0.676 3.44,3.592 3.356,3.676 0.549,-0.18 8.398,-0.744 12.4,-0.148"
           id="path44"
           style="fill:#ffffff" />
        <circle
           cx="119.483"
           cy="72.945999"
           r="4.7800002"
           id="circle46" />
        <circle
           cx="128.185"
           cy="108.121"
           r="11.03"
           id="circle48" />
        <ellipse
           cx="166.549"
           cy="104.691"
           rx="11.889"
           ry="7.599"
           id="ellipse50"
           style="fill:#020100" />
        <ellipse
           cx="169.121"
           cy="71.476997"
           rx="10.541"
           ry="7.4759998"
           id="ellipse52" />
        <g
           id="g58">
          <g
             id="g56">
            <path
               inkscape:connector-curvature="0"
               d="m 173.93,95.489 c -1.242,-0.776 -0.744,-11.836 -0.744,-11.836 l 13.551,-0.317 c 0.031,0.43 0.091,1.68 0.118,2.194 0.029,0.513 0.105,2.344 0.144,3.338 -0.529,9.261 -1.281,13.679 -3.558,19.615 -2.662,6.394 -5.352,10.18 -9.985,11.76 -2.279,0.777 -5.891,1.168 -7.859,0.099 -1.967,-1.134 -3.754,-3.33 -5.362,-6.619 -1.532,-3.248 -2.625,-7.082 -3.718,-11.935 -0.795,-4.114 -1.298,-6.01 -1.445,-12.205 -0.159,-6.489 -0.123,-9.116 0.521,-14.276 0.647,-5.106 1.679,-9.564 3.103,-13.341 1.41,-3.565 3.067,-6.022 4.97,-7.398 1.901,-1.301 4.182,-1.219 7.459,-0.345 2.722,0.939 5.56,2.848 8.115,6.189 2.551,3.202 6.514,9.896 6.795,12.097 0.28,2.186 -10.386,2.681 -10.386,2.681 0,0 -0.469,-1.618 -1.189,-3.854 -0.689,-2.235 -1.628,-3.504 -3.035,-3.921 -2.14,-0.589 -2.429,1.521 -3.113,5.622 -0.724,4.296 -0.927,9.841 -0.716,17.134 0.214,7.325 0.53,11.02 1.417,14.856 0.969,3.078 0.892,4.219 2.655,4.48 1.604,0.221 2.78,-1.043 3.59,-2.973 1.157,-2.519 2.593,-9.107 2.499,-11.894 0,-0.009 -2.583,1.609 -3.827,0.849 z"
               id="path54"
               style="fill:#ffffff;stroke:#000000;stroke-width:2.45129991" />
          </g>
        </g>
        <g
           id="g62">
          <path
             inkscape:connector-curvature="0"
             d="m 121.652,104.172 c 4.208,5.1 6.347,6.428 8.502,7.527 1.9,0.896 3.338,1.709 7.668,1.699 2.263,-0.089 3.77,-0.693 4.98,-2.343 1.209,-1.647 1.422,-2.885 1.387,-5.418 -0.202,-2.705 -0.318,-3.092 -1.027,-5.185 -0.859,-1.989 -1.985,-3.555 -5.665,-6.01 -6.075,-3.777 -10.13,-7.166 -12.238,-9.867 -3.027,-3.853 -3.733,-6.529 -4.012,-11.875 -0.126,-8.537 1.539,-15.218 5.293,-20.661 3.754,-5.443 7.478,-7.788 13.591,-7.876 3.299,-0.051 7.399,1.228 10.381,2.505 3.277,1.715 4.764,2.438 8.325,6.331 l -4.231,15.307 c -1.892,-2.331 -4.043,-4.673 -6.012,-5.845 -1.969,-1.172 -3.906,-1.561 -5.813,-1.534 -1.965,0.028 -3.547,0.997 -4.755,2.417 -1.208,1.42 -1.78,4.134 -1.748,6.329 0.032,2.236 0.597,4.016 1.695,5.344 1.4,1.926 3.306,3.146 6.297,4.641 2.99,1.495 8.182,4.991 10.208,8.17 1.909,2.668 3.198,5.244 4.149,8.242 0.884,3.17 1.364,6.258 1.422,9.967 -0.179,10.957 -5.414,16.096 -5.414,16.096 0,0 -6.278,7.199 -14.36,7.756 -5.631,0.391 -7.987,-0.439 -11.44,-2.342 -4.182,-2.391 -6.886,-6.684 -6.886,-6.684 z"
             id="path60"
             style="fill:#ffffff;stroke:#000000;stroke-width:2.45129991" />
        </g>
        <g
           id="g66">
          <path
             inkscape:connector-curvature="0"
             d="m 97.608,109.405 c 0,0 -6.573,-21.793 0.045,-46.831 0,0 10.831,-8.146 10.629,-7.208 -0.843,2.923 -2.684,16.339 -2.794,17.004 -0.111,0.665 12.672,-17.416 17.164,-19.319 0,0 -0.337,14.86 -2.31,18.618 0,0 -10.613,11.676 -10.495,14.151 0.151,3.209 11.169,16.244 11.169,16.244 0,0 2.041,21.771 0.891,21.672 -1.15,-0.098 -15.665,-24.162 -15.703,-23.711 -0.039,0.453 2.385,19.299 2.083,19.389 -0.303,0.092 -10.679,-10.009 -10.679,-10.009 z"
             id="path64"
             style="fill:#ffffff;stroke:#000000;stroke-width:2.45129991" />
        </g>
      </g>
    </a>
  </g>
</svg>
